<?xml version="1.0" encoding="UTF-8" standalone="no"?>
<svg>
<metadata>built for 'DuxCBfr1252' braille table on Sun Dec 07 11:53:12 CET 2014</metadata>
<defs>
<font horiz-adv-x="600" id="Braille-DuxCBfr1252" vert-adv-y="">
<font-face ascent="658" descent="-254" font-family="Braille" font-stretch="normal" font-weight="normal" units-per-em="1024"/>
<missing-glyph/>
<glyph d="M 75 583 m -18, 0 a 18,18 0 1,1 36,0 a 18,18 0 1,1 -36,0 z M 75 329 m -18, 0 a 18,18 0 1,1 36,0 a 18,18 0 1,1 -36,0 z M 75 75 m -18, 0 a 18,18 0 1,1 36,0 a 18,18 0 1,1 -36,0 z M 304 583 m -18, 0 a 18,18 0 1,1 36,0 a 18,18 0 1,1 -36,0 z M 304 329 m -18, 0 a 18,18 0 1,1 36,0 a 18,18 0 1,1 -36,0 z M 304 75 m -18, 0 a 18,18 0 1,1 36,0 a 18,18 0 1,1 -36,0 z " horiz-adv-x="600" unicode=" "/>
<glyph d="M 75 583 m -75, 0 a 75,75 0 1,1 150,0 a 75,75 0 1,1 -150,0 z M 75 329 m -18, 0 a 18,18 0 1,1 36,0 a 18,18 0 1,1 -36,0 z M 75 75 m -18, 0 a 18,18 0 1,1 36,0 a 18,18 0 1,1 -36,0 z M 304 583 m -18, 0 a 18,18 0 1,1 36,0 a 18,18 0 1,1 -36,0 z M 304 329 m -18, 0 a 18,18 0 1,1 36,0 a 18,18 0 1,1 -36,0 z M 304 75 m -18, 0 a 18,18 0 1,1 36,0 a 18,18 0 1,1 -36,0 z " horiz-adv-x="600" unicode="a"/>
<glyph d="M 75 583 m -18, 0 a 18,18 0 1,1 36,0 a 18,18 0 1,1 -36,0 z M 75 329 m -75, 0 a 75,75 0 1,1 150,0 a 75,75 0 1,1 -150,0 z M 75 75 m -18, 0 a 18,18 0 1,1 36,0 a 18,18 0 1,1 -36,0 z M 304 583 m -18, 0 a 18,18 0 1,1 36,0 a 18,18 0 1,1 -36,0 z M 304 329 m -18, 0 a 18,18 0 1,1 36,0 a 18,18 0 1,1 -36,0 z M 304 75 m -18, 0 a 18,18 0 1,1 36,0 a 18,18 0 1,1 -36,0 z " horiz-adv-x="600" unicode=","/>
<glyph d="M 75 583 m -75, 0 a 75,75 0 1,1 150,0 a 75,75 0 1,1 -150,0 z M 75 329 m -75, 0 a 75,75 0 1,1 150,0 a 75,75 0 1,1 -150,0 z M 75 75 m -18, 0 a 18,18 0 1,1 36,0 a 18,18 0 1,1 -36,0 z M 304 583 m -18, 0 a 18,18 0 1,1 36,0 a 18,18 0 1,1 -36,0 z M 304 329 m -18, 0 a 18,18 0 1,1 36,0 a 18,18 0 1,1 -36,0 z M 304 75 m -18, 0 a 18,18 0 1,1 36,0 a 18,18 0 1,1 -36,0 z " horiz-adv-x="600" unicode="b"/>
<glyph d="M 75 583 m -18, 0 a 18,18 0 1,1 36,0 a 18,18 0 1,1 -36,0 z M 75 329 m -18, 0 a 18,18 0 1,1 36,0 a 18,18 0 1,1 -36,0 z M 75 75 m -75, 0 a 75,75 0 1,1 150,0 a 75,75 0 1,1 -150,0 z M 304 583 m -18, 0 a 18,18 0 1,1 36,0 a 18,18 0 1,1 -36,0 z M 304 329 m -18, 0 a 18,18 0 1,1 36,0 a 18,18 0 1,1 -36,0 z M 304 75 m -18, 0 a 18,18 0 1,1 36,0 a 18,18 0 1,1 -36,0 z " horiz-adv-x="600" unicode="."/>
<glyph d="M 75 583 m -75, 0 a 75,75 0 1,1 150,0 a 75,75 0 1,1 -150,0 z M 75 329 m -18, 0 a 18,18 0 1,1 36,0 a 18,18 0 1,1 -36,0 z M 75 75 m -75, 0 a 75,75 0 1,1 150,0 a 75,75 0 1,1 -150,0 z M 304 583 m -18, 0 a 18,18 0 1,1 36,0 a 18,18 0 1,1 -36,0 z M 304 329 m -18, 0 a 18,18 0 1,1 36,0 a 18,18 0 1,1 -36,0 z M 304 75 m -18, 0 a 18,18 0 1,1 36,0 a 18,18 0 1,1 -36,0 z " horiz-adv-x="600" unicode="k"/>
<glyph d="M 75 583 m -18, 0 a 18,18 0 1,1 36,0 a 18,18 0 1,1 -36,0 z M 75 329 m -75, 0 a 75,75 0 1,1 150,0 a 75,75 0 1,1 -150,0 z M 75 75 m -75, 0 a 75,75 0 1,1 150,0 a 75,75 0 1,1 -150,0 z M 304 583 m -18, 0 a 18,18 0 1,1 36,0 a 18,18 0 1,1 -36,0 z M 304 329 m -18, 0 a 18,18 0 1,1 36,0 a 18,18 0 1,1 -36,0 z M 304 75 m -18, 0 a 18,18 0 1,1 36,0 a 18,18 0 1,1 -36,0 z " horiz-adv-x="600" unicode=";"/>
<glyph d="M 75 583 m -75, 0 a 75,75 0 1,1 150,0 a 75,75 0 1,1 -150,0 z M 75 329 m -75, 0 a 75,75 0 1,1 150,0 a 75,75 0 1,1 -150,0 z M 75 75 m -75, 0 a 75,75 0 1,1 150,0 a 75,75 0 1,1 -150,0 z M 304 583 m -18, 0 a 18,18 0 1,1 36,0 a 18,18 0 1,1 -36,0 z M 304 329 m -18, 0 a 18,18 0 1,1 36,0 a 18,18 0 1,1 -36,0 z M 304 75 m -18, 0 a 18,18 0 1,1 36,0 a 18,18 0 1,1 -36,0 z " horiz-adv-x="600" unicode="l"/>
<glyph d="M 75 583 m -18, 0 a 18,18 0 1,1 36,0 a 18,18 0 1,1 -36,0 z M 75 329 m -18, 0 a 18,18 0 1,1 36,0 a 18,18 0 1,1 -36,0 z M 75 75 m -18, 0 a 18,18 0 1,1 36,0 a 18,18 0 1,1 -36,0 z M 304 583 m -75, 0 a 75,75 0 1,1 150,0 a 75,75 0 1,1 -150,0 z M 304 329 m -18, 0 a 18,18 0 1,1 36,0 a 18,18 0 1,1 -36,0 z M 304 75 m -18, 0 a 18,18 0 1,1 36,0 a 18,18 0 1,1 -36,0 z " horiz-adv-x="600" unicode="$"/>
<glyph d="M 75 583 m -75, 0 a 75,75 0 1,1 150,0 a 75,75 0 1,1 -150,0 z M 75 329 m -18, 0 a 18,18 0 1,1 36,0 a 18,18 0 1,1 -36,0 z M 75 75 m -18, 0 a 18,18 0 1,1 36,0 a 18,18 0 1,1 -36,0 z M 304 583 m -75, 0 a 75,75 0 1,1 150,0 a 75,75 0 1,1 -150,0 z M 304 329 m -18, 0 a 18,18 0 1,1 36,0 a 18,18 0 1,1 -36,0 z M 304 75 m -18, 0 a 18,18 0 1,1 36,0 a 18,18 0 1,1 -36,0 z " horiz-adv-x="600" unicode="c"/>
<glyph d="M 75 583 m -18, 0 a 18,18 0 1,1 36,0 a 18,18 0 1,1 -36,0 z M 75 329 m -75, 0 a 75,75 0 1,1 150,0 a 75,75 0 1,1 -150,0 z M 75 75 m -18, 0 a 18,18 0 1,1 36,0 a 18,18 0 1,1 -36,0 z M 304 583 m -75, 0 a 75,75 0 1,1 150,0 a 75,75 0 1,1 -150,0 z M 304 329 m -18, 0 a 18,18 0 1,1 36,0 a 18,18 0 1,1 -36,0 z M 304 75 m -18, 0 a 18,18 0 1,1 36,0 a 18,18 0 1,1 -36,0 z " horiz-adv-x="600" unicode="i"/>
<glyph d="M 75 583 m -75, 0 a 75,75 0 1,1 150,0 a 75,75 0 1,1 -150,0 z M 75 329 m -75, 0 a 75,75 0 1,1 150,0 a 75,75 0 1,1 -150,0 z M 75 75 m -18, 0 a 18,18 0 1,1 36,0 a 18,18 0 1,1 -36,0 z M 304 583 m -75, 0 a 75,75 0 1,1 150,0 a 75,75 0 1,1 -150,0 z M 304 329 m -18, 0 a 18,18 0 1,1 36,0 a 18,18 0 1,1 -36,0 z M 304 75 m -18, 0 a 18,18 0 1,1 36,0 a 18,18 0 1,1 -36,0 z " horiz-adv-x="600" unicode="f"/>
<glyph d="M 75 583 m -18, 0 a 18,18 0 1,1 36,0 a 18,18 0 1,1 -36,0 z M 75 329 m -18, 0 a 18,18 0 1,1 36,0 a 18,18 0 1,1 -36,0 z M 75 75 m -75, 0 a 75,75 0 1,1 150,0 a 75,75 0 1,1 -150,0 z M 304 583 m -75, 0 a 75,75 0 1,1 150,0 a 75,75 0 1,1 -150,0 z M 304 329 m -18, 0 a 18,18 0 1,1 36,0 a 18,18 0 1,1 -36,0 z M 304 75 m -18, 0 a 18,18 0 1,1 36,0 a 18,18 0 1,1 -36,0 z " horiz-adv-x="600" unicode="^"/>
<glyph d="M 75 583 m -75, 0 a 75,75 0 1,1 150,0 a 75,75 0 1,1 -150,0 z M 75 329 m -18, 0 a 18,18 0 1,1 36,0 a 18,18 0 1,1 -36,0 z M 75 75 m -75, 0 a 75,75 0 1,1 150,0 a 75,75 0 1,1 -150,0 z M 304 583 m -75, 0 a 75,75 0 1,1 150,0 a 75,75 0 1,1 -150,0 z M 304 329 m -18, 0 a 18,18 0 1,1 36,0 a 18,18 0 1,1 -36,0 z M 304 75 m -18, 0 a 18,18 0 1,1 36,0 a 18,18 0 1,1 -36,0 z " horiz-adv-x="600" unicode="m"/>
<glyph d="M 75 583 m -18, 0 a 18,18 0 1,1 36,0 a 18,18 0 1,1 -36,0 z M 75 329 m -75, 0 a 75,75 0 1,1 150,0 a 75,75 0 1,1 -150,0 z M 75 75 m -75, 0 a 75,75 0 1,1 150,0 a 75,75 0 1,1 -150,0 z M 304 583 m -75, 0 a 75,75 0 1,1 150,0 a 75,75 0 1,1 -150,0 z M 304 329 m -18, 0 a 18,18 0 1,1 36,0 a 18,18 0 1,1 -36,0 z M 304 75 m -18, 0 a 18,18 0 1,1 36,0 a 18,18 0 1,1 -36,0 z " horiz-adv-x="600" unicode="s"/>
<glyph d="M 75 583 m -75, 0 a 75,75 0 1,1 150,0 a 75,75 0 1,1 -150,0 z M 75 329 m -75, 0 a 75,75 0 1,1 150,0 a 75,75 0 1,1 -150,0 z M 75 75 m -75, 0 a 75,75 0 1,1 150,0 a 75,75 0 1,1 -150,0 z M 304 583 m -75, 0 a 75,75 0 1,1 150,0 a 75,75 0 1,1 -150,0 z M 304 329 m -18, 0 a 18,18 0 1,1 36,0 a 18,18 0 1,1 -36,0 z M 304 75 m -18, 0 a 18,18 0 1,1 36,0 a 18,18 0 1,1 -36,0 z " horiz-adv-x="600" unicode="p"/>
<glyph d="M 75 583 m -18, 0 a 18,18 0 1,1 36,0 a 18,18 0 1,1 -36,0 z M 75 329 m -18, 0 a 18,18 0 1,1 36,0 a 18,18 0 1,1 -36,0 z M 75 75 m -18, 0 a 18,18 0 1,1 36,0 a 18,18 0 1,1 -36,0 z M 304 583 m -18, 0 a 18,18 0 1,1 36,0 a 18,18 0 1,1 -36,0 z M 304 329 m -75, 0 a 75,75 0 1,1 150,0 a 75,75 0 1,1 -150,0 z M 304 75 m -18, 0 a 18,18 0 1,1 36,0 a 18,18 0 1,1 -36,0 z " horiz-adv-x="600" unicode="~"/>
<glyph d="M 75 583 m -75, 0 a 75,75 0 1,1 150,0 a 75,75 0 1,1 -150,0 z M 75 329 m -18, 0 a 18,18 0 1,1 36,0 a 18,18 0 1,1 -36,0 z M 75 75 m -18, 0 a 18,18 0 1,1 36,0 a 18,18 0 1,1 -36,0 z M 304 583 m -18, 0 a 18,18 0 1,1 36,0 a 18,18 0 1,1 -36,0 z M 304 329 m -75, 0 a 75,75 0 1,1 150,0 a 75,75 0 1,1 -150,0 z M 304 75 m -18, 0 a 18,18 0 1,1 36,0 a 18,18 0 1,1 -36,0 z " horiz-adv-x="600" unicode="e"/>
<glyph d="M 75 583 m -18, 0 a 18,18 0 1,1 36,0 a 18,18 0 1,1 -36,0 z M 75 329 m -75, 0 a 75,75 0 1,1 150,0 a 75,75 0 1,1 -150,0 z M 75 75 m -18, 0 a 18,18 0 1,1 36,0 a 18,18 0 1,1 -36,0 z M 304 583 m -18, 0 a 18,18 0 1,1 36,0 a 18,18 0 1,1 -36,0 z M 304 329 m -75, 0 a 75,75 0 1,1 150,0 a 75,75 0 1,1 -150,0 z M 304 75 m -18, 0 a 18,18 0 1,1 36,0 a 18,18 0 1,1 -36,0 z " horiz-adv-x="600" unicode=":"/>
<glyph d="M 75 583 m -75, 0 a 75,75 0 1,1 150,0 a 75,75 0 1,1 -150,0 z M 75 329 m -75, 0 a 75,75 0 1,1 150,0 a 75,75 0 1,1 -150,0 z M 75 75 m -18, 0 a 18,18 0 1,1 36,0 a 18,18 0 1,1 -36,0 z M 304 583 m -18, 0 a 18,18 0 1,1 36,0 a 18,18 0 1,1 -36,0 z M 304 329 m -75, 0 a 75,75 0 1,1 150,0 a 75,75 0 1,1 -150,0 z M 304 75 m -18, 0 a 18,18 0 1,1 36,0 a 18,18 0 1,1 -36,0 z " horiz-adv-x="600" unicode="h"/>
<glyph d="M 75 583 m -18, 0 a 18,18 0 1,1 36,0 a 18,18 0 1,1 -36,0 z M 75 329 m -18, 0 a 18,18 0 1,1 36,0 a 18,18 0 1,1 -36,0 z M 75 75 m -75, 0 a 75,75 0 1,1 150,0 a 75,75 0 1,1 -150,0 z M 304 583 m -18, 0 a 18,18 0 1,1 36,0 a 18,18 0 1,1 -36,0 z M 304 329 m -75, 0 a 75,75 0 1,1 150,0 a 75,75 0 1,1 -150,0 z M 304 75 m -18, 0 a 18,18 0 1,1 36,0 a 18,18 0 1,1 -36,0 z " horiz-adv-x="600" unicode="*"/>
<glyph d="M 75 583 m -75, 0 a 75,75 0 1,1 150,0 a 75,75 0 1,1 -150,0 z M 75 329 m -18, 0 a 18,18 0 1,1 36,0 a 18,18 0 1,1 -36,0 z M 75 75 m -75, 0 a 75,75 0 1,1 150,0 a 75,75 0 1,1 -150,0 z M 304 583 m -18, 0 a 18,18 0 1,1 36,0 a 18,18 0 1,1 -36,0 z M 304 329 m -75, 0 a 75,75 0 1,1 150,0 a 75,75 0 1,1 -150,0 z M 304 75 m -18, 0 a 18,18 0 1,1 36,0 a 18,18 0 1,1 -36,0 z " horiz-adv-x="600" unicode="o"/>
<glyph d="M 75 583 m -18, 0 a 18,18 0 1,1 36,0 a 18,18 0 1,1 -36,0 z M 75 329 m -75, 0 a 75,75 0 1,1 150,0 a 75,75 0 1,1 -150,0 z M 75 75 m -75, 0 a 75,75 0 1,1 150,0 a 75,75 0 1,1 -150,0 z M 304 583 m -18, 0 a 18,18 0 1,1 36,0 a 18,18 0 1,1 -36,0 z M 304 329 m -75, 0 a 75,75 0 1,1 150,0 a 75,75 0 1,1 -150,0 z M 304 75 m -18, 0 a 18,18 0 1,1 36,0 a 18,18 0 1,1 -36,0 z " horiz-adv-x="600" unicode="!"/>
<glyph d="M 75 583 m -75, 0 a 75,75 0 1,1 150,0 a 75,75 0 1,1 -150,0 z M 75 329 m -75, 0 a 75,75 0 1,1 150,0 a 75,75 0 1,1 -150,0 z M 75 75 m -75, 0 a 75,75 0 1,1 150,0 a 75,75 0 1,1 -150,0 z M 304 583 m -18, 0 a 18,18 0 1,1 36,0 a 18,18 0 1,1 -36,0 z M 304 329 m -75, 0 a 75,75 0 1,1 150,0 a 75,75 0 1,1 -150,0 z M 304 75 m -18, 0 a 18,18 0 1,1 36,0 a 18,18 0 1,1 -36,0 z " horiz-adv-x="600" unicode="r"/>
<glyph d="M 75 583 m -18, 0 a 18,18 0 1,1 36,0 a 18,18 0 1,1 -36,0 z M 75 329 m -18, 0 a 18,18 0 1,1 36,0 a 18,18 0 1,1 -36,0 z M 75 75 m -18, 0 a 18,18 0 1,1 36,0 a 18,18 0 1,1 -36,0 z M 304 583 m -75, 0 a 75,75 0 1,1 150,0 a 75,75 0 1,1 -150,0 z M 304 329 m -75, 0 a 75,75 0 1,1 150,0 a 75,75 0 1,1 -150,0 z M 304 75 m -18, 0 a 18,18 0 1,1 36,0 a 18,18 0 1,1 -36,0 z " horiz-adv-x="600" unicode="&gt;"/>
<glyph d="M 75 583 m -75, 0 a 75,75 0 1,1 150,0 a 75,75 0 1,1 -150,0 z M 75 329 m -18, 0 a 18,18 0 1,1 36,0 a 18,18 0 1,1 -36,0 z M 75 75 m -18, 0 a 18,18 0 1,1 36,0 a 18,18 0 1,1 -36,0 z M 304 583 m -75, 0 a 75,75 0 1,1 150,0 a 75,75 0 1,1 -150,0 z M 304 329 m -75, 0 a 75,75 0 1,1 150,0 a 75,75 0 1,1 -150,0 z M 304 75 m -18, 0 a 18,18 0 1,1 36,0 a 18,18 0 1,1 -36,0 z " horiz-adv-x="600" unicode="d"/>
<glyph d="M 75 583 m -18, 0 a 18,18 0 1,1 36,0 a 18,18 0 1,1 -36,0 z M 75 329 m -75, 0 a 75,75 0 1,1 150,0 a 75,75 0 1,1 -150,0 z M 75 75 m -18, 0 a 18,18 0 1,1 36,0 a 18,18 0 1,1 -36,0 z M 304 583 m -75, 0 a 75,75 0 1,1 150,0 a 75,75 0 1,1 -150,0 z M 304 329 m -75, 0 a 75,75 0 1,1 150,0 a 75,75 0 1,1 -150,0 z M 304 75 m -18, 0 a 18,18 0 1,1 36,0 a 18,18 0 1,1 -36,0 z " horiz-adv-x="600" unicode="j"/>
<glyph d="M 75 583 m -75, 0 a 75,75 0 1,1 150,0 a 75,75 0 1,1 -150,0 z M 75 329 m -75, 0 a 75,75 0 1,1 150,0 a 75,75 0 1,1 -150,0 z M 75 75 m -18, 0 a 18,18 0 1,1 36,0 a 18,18 0 1,1 -36,0 z M 304 583 m -75, 0 a 75,75 0 1,1 150,0 a 75,75 0 1,1 -150,0 z M 304 329 m -75, 0 a 75,75 0 1,1 150,0 a 75,75 0 1,1 -150,0 z M 304 75 m -18, 0 a 18,18 0 1,1 36,0 a 18,18 0 1,1 -36,0 z " horiz-adv-x="600" unicode="g"/>
<glyph d="M 75 583 m -18, 0 a 18,18 0 1,1 36,0 a 18,18 0 1,1 -36,0 z M 75 329 m -18, 0 a 18,18 0 1,1 36,0 a 18,18 0 1,1 -36,0 z M 75 75 m -75, 0 a 75,75 0 1,1 150,0 a 75,75 0 1,1 -150,0 z M 304 583 m -75, 0 a 75,75 0 1,1 150,0 a 75,75 0 1,1 -150,0 z M 304 329 m -75, 0 a 75,75 0 1,1 150,0 a 75,75 0 1,1 -150,0 z M 304 75 m -18, 0 a 18,18 0 1,1 36,0 a 18,18 0 1,1 -36,0 z " horiz-adv-x="600" unicode="@"/>
<glyph d="M 75 583 m -75, 0 a 75,75 0 1,1 150,0 a 75,75 0 1,1 -150,0 z M 75 329 m -18, 0 a 18,18 0 1,1 36,0 a 18,18 0 1,1 -36,0 z M 75 75 m -75, 0 a 75,75 0 1,1 150,0 a 75,75 0 1,1 -150,0 z M 304 583 m -75, 0 a 75,75 0 1,1 150,0 a 75,75 0 1,1 -150,0 z M 304 329 m -75, 0 a 75,75 0 1,1 150,0 a 75,75 0 1,1 -150,0 z M 304 75 m -18, 0 a 18,18 0 1,1 36,0 a 18,18 0 1,1 -36,0 z " horiz-adv-x="600" unicode="n"/>
<glyph d="M 75 583 m -18, 0 a 18,18 0 1,1 36,0 a 18,18 0 1,1 -36,0 z M 75 329 m -75, 0 a 75,75 0 1,1 150,0 a 75,75 0 1,1 -150,0 z M 75 75 m -75, 0 a 75,75 0 1,1 150,0 a 75,75 0 1,1 -150,0 z M 304 583 m -75, 0 a 75,75 0 1,1 150,0 a 75,75 0 1,1 -150,0 z M 304 329 m -75, 0 a 75,75 0 1,1 150,0 a 75,75 0 1,1 -150,0 z M 304 75 m -18, 0 a 18,18 0 1,1 36,0 a 18,18 0 1,1 -36,0 z " horiz-adv-x="600" unicode="t"/>
<glyph d="M 75 583 m -75, 0 a 75,75 0 1,1 150,0 a 75,75 0 1,1 -150,0 z M 75 329 m -75, 0 a 75,75 0 1,1 150,0 a 75,75 0 1,1 -150,0 z M 75 75 m -75, 0 a 75,75 0 1,1 150,0 a 75,75 0 1,1 -150,0 z M 304 583 m -75, 0 a 75,75 0 1,1 150,0 a 75,75 0 1,1 -150,0 z M 304 329 m -75, 0 a 75,75 0 1,1 150,0 a 75,75 0 1,1 -150,0 z M 304 75 m -18, 0 a 18,18 0 1,1 36,0 a 18,18 0 1,1 -36,0 z " horiz-adv-x="600" unicode="q"/>
<glyph d="M 75 583 m -18, 0 a 18,18 0 1,1 36,0 a 18,18 0 1,1 -36,0 z M 75 329 m -18, 0 a 18,18 0 1,1 36,0 a 18,18 0 1,1 -36,0 z M 75 75 m -18, 0 a 18,18 0 1,1 36,0 a 18,18 0 1,1 -36,0 z M 304 583 m -18, 0 a 18,18 0 1,1 36,0 a 18,18 0 1,1 -36,0 z M 304 329 m -18, 0 a 18,18 0 1,1 36,0 a 18,18 0 1,1 -36,0 z M 304 75 m -75, 0 a 75,75 0 1,1 150,0 a 75,75 0 1,1 -150,0 z " horiz-adv-x="600" unicode="'"/>
<glyph d="M 75 583 m -75, 0 a 75,75 0 1,1 150,0 a 75,75 0 1,1 -150,0 z M 75 329 m -18, 0 a 18,18 0 1,1 36,0 a 18,18 0 1,1 -36,0 z M 75 75 m -18, 0 a 18,18 0 1,1 36,0 a 18,18 0 1,1 -36,0 z M 304 583 m -18, 0 a 18,18 0 1,1 36,0 a 18,18 0 1,1 -36,0 z M 304 329 m -18, 0 a 18,18 0 1,1 36,0 a 18,18 0 1,1 -36,0 z M 304 75 m -75, 0 a 75,75 0 1,1 150,0 a 75,75 0 1,1 -150,0 z " horiz-adv-x="600" unicode="â"/>
<glyph d="M 75 583 m -18, 0 a 18,18 0 1,1 36,0 a 18,18 0 1,1 -36,0 z M 75 329 m -75, 0 a 75,75 0 1,1 150,0 a 75,75 0 1,1 -150,0 z M 75 75 m -18, 0 a 18,18 0 1,1 36,0 a 18,18 0 1,1 -36,0 z M 304 583 m -18, 0 a 18,18 0 1,1 36,0 a 18,18 0 1,1 -36,0 z M 304 329 m -18, 0 a 18,18 0 1,1 36,0 a 18,18 0 1,1 -36,0 z M 304 75 m -75, 0 a 75,75 0 1,1 150,0 a 75,75 0 1,1 -150,0 z " horiz-adv-x="600" unicode="?"/>
<glyph d="M 75 583 m -75, 0 a 75,75 0 1,1 150,0 a 75,75 0 1,1 -150,0 z M 75 329 m -75, 0 a 75,75 0 1,1 150,0 a 75,75 0 1,1 -150,0 z M 75 75 m -18, 0 a 18,18 0 1,1 36,0 a 18,18 0 1,1 -36,0 z M 304 583 m -18, 0 a 18,18 0 1,1 36,0 a 18,18 0 1,1 -36,0 z M 304 329 m -18, 0 a 18,18 0 1,1 36,0 a 18,18 0 1,1 -36,0 z M 304 75 m -75, 0 a 75,75 0 1,1 150,0 a 75,75 0 1,1 -150,0 z " horiz-adv-x="600" unicode="ê"/>
<glyph d="M 75 583 m -18, 0 a 18,18 0 1,1 36,0 a 18,18 0 1,1 -36,0 z M 75 329 m -18, 0 a 18,18 0 1,1 36,0 a 18,18 0 1,1 -36,0 z M 75 75 m -75, 0 a 75,75 0 1,1 150,0 a 75,75 0 1,1 -150,0 z M 304 583 m -18, 0 a 18,18 0 1,1 36,0 a 18,18 0 1,1 -36,0 z M 304 329 m -18, 0 a 18,18 0 1,1 36,0 a 18,18 0 1,1 -36,0 z M 304 75 m -75, 0 a 75,75 0 1,1 150,0 a 75,75 0 1,1 -150,0 z " horiz-adv-x="600" unicode="-"/>
<glyph d="M 75 583 m -75, 0 a 75,75 0 1,1 150,0 a 75,75 0 1,1 -150,0 z M 75 329 m -18, 0 a 18,18 0 1,1 36,0 a 18,18 0 1,1 -36,0 z M 75 75 m -75, 0 a 75,75 0 1,1 150,0 a 75,75 0 1,1 -150,0 z M 304 583 m -18, 0 a 18,18 0 1,1 36,0 a 18,18 0 1,1 -36,0 z M 304 329 m -18, 0 a 18,18 0 1,1 36,0 a 18,18 0 1,1 -36,0 z M 304 75 m -75, 0 a 75,75 0 1,1 150,0 a 75,75 0 1,1 -150,0 z " horiz-adv-x="600" unicode="u"/>
<glyph d="M 75 583 m -18, 0 a 18,18 0 1,1 36,0 a 18,18 0 1,1 -36,0 z M 75 329 m -75, 0 a 75,75 0 1,1 150,0 a 75,75 0 1,1 -150,0 z M 75 75 m -75, 0 a 75,75 0 1,1 150,0 a 75,75 0 1,1 -150,0 z M 304 583 m -18, 0 a 18,18 0 1,1 36,0 a 18,18 0 1,1 -36,0 z M 304 329 m -18, 0 a 18,18 0 1,1 36,0 a 18,18 0 1,1 -36,0 z M 304 75 m -75, 0 a 75,75 0 1,1 150,0 a 75,75 0 1,1 -150,0 z " horiz-adv-x="600" unicode="("/>
<glyph d="M 75 583 m -75, 0 a 75,75 0 1,1 150,0 a 75,75 0 1,1 -150,0 z M 75 329 m -75, 0 a 75,75 0 1,1 150,0 a 75,75 0 1,1 -150,0 z M 75 75 m -75, 0 a 75,75 0 1,1 150,0 a 75,75 0 1,1 -150,0 z M 304 583 m -18, 0 a 18,18 0 1,1 36,0 a 18,18 0 1,1 -36,0 z M 304 329 m -18, 0 a 18,18 0 1,1 36,0 a 18,18 0 1,1 -36,0 z M 304 75 m -75, 0 a 75,75 0 1,1 150,0 a 75,75 0 1,1 -150,0 z " horiz-adv-x="600" unicode="v"/>
<glyph d="M 75 583 m -18, 0 a 18,18 0 1,1 36,0 a 18,18 0 1,1 -36,0 z M 75 329 m -18, 0 a 18,18 0 1,1 36,0 a 18,18 0 1,1 -36,0 z M 75 75 m -18, 0 a 18,18 0 1,1 36,0 a 18,18 0 1,1 -36,0 z M 304 583 m -75, 0 a 75,75 0 1,1 150,0 a 75,75 0 1,1 -150,0 z M 304 329 m -18, 0 a 18,18 0 1,1 36,0 a 18,18 0 1,1 -36,0 z M 304 75 m -75, 0 a 75,75 0 1,1 150,0 a 75,75 0 1,1 -150,0 z " horiz-adv-x="600" unicode="¨"/>
<glyph d="M 75 583 m -75, 0 a 75,75 0 1,1 150,0 a 75,75 0 1,1 -150,0 z M 75 329 m -18, 0 a 18,18 0 1,1 36,0 a 18,18 0 1,1 -36,0 z M 75 75 m -18, 0 a 18,18 0 1,1 36,0 a 18,18 0 1,1 -36,0 z M 304 583 m -75, 0 a 75,75 0 1,1 150,0 a 75,75 0 1,1 -150,0 z M 304 329 m -18, 0 a 18,18 0 1,1 36,0 a 18,18 0 1,1 -36,0 z M 304 75 m -75, 0 a 75,75 0 1,1 150,0 a 75,75 0 1,1 -150,0 z " horiz-adv-x="600" unicode="î"/>
<glyph d="M 75 583 m -18, 0 a 18,18 0 1,1 36,0 a 18,18 0 1,1 -36,0 z M 75 329 m -75, 0 a 75,75 0 1,1 150,0 a 75,75 0 1,1 -150,0 z M 75 75 m -18, 0 a 18,18 0 1,1 36,0 a 18,18 0 1,1 -36,0 z M 304 583 m -75, 0 a 75,75 0 1,1 150,0 a 75,75 0 1,1 -150,0 z M 304 329 m -18, 0 a 18,18 0 1,1 36,0 a 18,18 0 1,1 -36,0 z M 304 75 m -75, 0 a 75,75 0 1,1 150,0 a 75,75 0 1,1 -150,0 z " horiz-adv-x="600" unicode="9"/>
<glyph d="M 75 583 m -75, 0 a 75,75 0 1,1 150,0 a 75,75 0 1,1 -150,0 z M 75 329 m -75, 0 a 75,75 0 1,1 150,0 a 75,75 0 1,1 -150,0 z M 75 75 m -18, 0 a 18,18 0 1,1 36,0 a 18,18 0 1,1 -36,0 z M 304 583 m -75, 0 a 75,75 0 1,1 150,0 a 75,75 0 1,1 -150,0 z M 304 329 m -18, 0 a 18,18 0 1,1 36,0 a 18,18 0 1,1 -36,0 z M 304 75 m -75, 0 a 75,75 0 1,1 150,0 a 75,75 0 1,1 -150,0 z " horiz-adv-x="600" unicode="ë"/>
<glyph d="M 75 583 m -18, 0 a 18,18 0 1,1 36,0 a 18,18 0 1,1 -36,0 z M 75 329 m -18, 0 a 18,18 0 1,1 36,0 a 18,18 0 1,1 -36,0 z M 75 75 m -75, 0 a 75,75 0 1,1 150,0 a 75,75 0 1,1 -150,0 z M 304 583 m -75, 0 a 75,75 0 1,1 150,0 a 75,75 0 1,1 -150,0 z M 304 329 m -18, 0 a 18,18 0 1,1 36,0 a 18,18 0 1,1 -36,0 z M 304 75 m -75, 0 a 75,75 0 1,1 150,0 a 75,75 0 1,1 -150,0 z " horiz-adv-x="600" unicode="#"/>
<glyph d="M 75 583 m -75, 0 a 75,75 0 1,1 150,0 a 75,75 0 1,1 -150,0 z M 75 329 m -18, 0 a 18,18 0 1,1 36,0 a 18,18 0 1,1 -36,0 z M 75 75 m -75, 0 a 75,75 0 1,1 150,0 a 75,75 0 1,1 -150,0 z M 304 583 m -75, 0 a 75,75 0 1,1 150,0 a 75,75 0 1,1 -150,0 z M 304 329 m -18, 0 a 18,18 0 1,1 36,0 a 18,18 0 1,1 -36,0 z M 304 75 m -75, 0 a 75,75 0 1,1 150,0 a 75,75 0 1,1 -150,0 z " horiz-adv-x="600" unicode="x"/>
<glyph d="M 75 583 m -18, 0 a 18,18 0 1,1 36,0 a 18,18 0 1,1 -36,0 z M 75 329 m -75, 0 a 75,75 0 1,1 150,0 a 75,75 0 1,1 -150,0 z M 75 75 m -75, 0 a 75,75 0 1,1 150,0 a 75,75 0 1,1 -150,0 z M 304 583 m -75, 0 a 75,75 0 1,1 150,0 a 75,75 0 1,1 -150,0 z M 304 329 m -18, 0 a 18,18 0 1,1 36,0 a 18,18 0 1,1 -36,0 z M 304 75 m -75, 0 a 75,75 0 1,1 150,0 a 75,75 0 1,1 -150,0 z " horiz-adv-x="600" unicode="è"/>
<glyph d="M 75 583 m -75, 0 a 75,75 0 1,1 150,0 a 75,75 0 1,1 -150,0 z M 75 329 m -75, 0 a 75,75 0 1,1 150,0 a 75,75 0 1,1 -150,0 z M 75 75 m -75, 0 a 75,75 0 1,1 150,0 a 75,75 0 1,1 -150,0 z M 304 583 m -75, 0 a 75,75 0 1,1 150,0 a 75,75 0 1,1 -150,0 z M 304 329 m -18, 0 a 18,18 0 1,1 36,0 a 18,18 0 1,1 -36,0 z M 304 75 m -75, 0 a 75,75 0 1,1 150,0 a 75,75 0 1,1 -150,0 z " horiz-adv-x="600" unicode="ç"/>
<glyph d="M 75 583 m -18, 0 a 18,18 0 1,1 36,0 a 18,18 0 1,1 -36,0 z M 75 329 m -18, 0 a 18,18 0 1,1 36,0 a 18,18 0 1,1 -36,0 z M 75 75 m -18, 0 a 18,18 0 1,1 36,0 a 18,18 0 1,1 -36,0 z M 304 583 m -18, 0 a 18,18 0 1,1 36,0 a 18,18 0 1,1 -36,0 z M 304 329 m -75, 0 a 75,75 0 1,1 150,0 a 75,75 0 1,1 -150,0 z M 304 75 m -75, 0 a 75,75 0 1,1 150,0 a 75,75 0 1,1 -150,0 z " horiz-adv-x="600" unicode="&lt;"/>
<glyph d="M 75 583 m -75, 0 a 75,75 0 1,1 150,0 a 75,75 0 1,1 -150,0 z M 75 329 m -18, 0 a 18,18 0 1,1 36,0 a 18,18 0 1,1 -36,0 z M 75 75 m -18, 0 a 18,18 0 1,1 36,0 a 18,18 0 1,1 -36,0 z M 304 583 m -18, 0 a 18,18 0 1,1 36,0 a 18,18 0 1,1 -36,0 z M 304 329 m -75, 0 a 75,75 0 1,1 150,0 a 75,75 0 1,1 -150,0 z M 304 75 m -75, 0 a 75,75 0 1,1 150,0 a 75,75 0 1,1 -150,0 z " horiz-adv-x="600" unicode="û"/>
<glyph d="M 75 583 m -18, 0 a 18,18 0 1,1 36,0 a 18,18 0 1,1 -36,0 z M 75 329 m -75, 0 a 75,75 0 1,1 150,0 a 75,75 0 1,1 -150,0 z M 75 75 m -18, 0 a 18,18 0 1,1 36,0 a 18,18 0 1,1 -36,0 z M 304 583 m -18, 0 a 18,18 0 1,1 36,0 a 18,18 0 1,1 -36,0 z M 304 329 m -75, 0 a 75,75 0 1,1 150,0 a 75,75 0 1,1 -150,0 z M 304 75 m -75, 0 a 75,75 0 1,1 150,0 a 75,75 0 1,1 -150,0 z " horiz-adv-x="600" unicode="/"/>
<glyph d="M 75 583 m -75, 0 a 75,75 0 1,1 150,0 a 75,75 0 1,1 -150,0 z M 75 329 m -75, 0 a 75,75 0 1,1 150,0 a 75,75 0 1,1 -150,0 z M 75 75 m -18, 0 a 18,18 0 1,1 36,0 a 18,18 0 1,1 -36,0 z M 304 583 m -18, 0 a 18,18 0 1,1 36,0 a 18,18 0 1,1 -36,0 z M 304 329 m -75, 0 a 75,75 0 1,1 150,0 a 75,75 0 1,1 -150,0 z M 304 75 m -75, 0 a 75,75 0 1,1 150,0 a 75,75 0 1,1 -150,0 z " horiz-adv-x="600" unicode="ü"/>
<glyph d="M 75 583 m -18, 0 a 18,18 0 1,1 36,0 a 18,18 0 1,1 -36,0 z M 75 329 m -18, 0 a 18,18 0 1,1 36,0 a 18,18 0 1,1 -36,0 z M 75 75 m -75, 0 a 75,75 0 1,1 150,0 a 75,75 0 1,1 -150,0 z M 304 583 m -18, 0 a 18,18 0 1,1 36,0 a 18,18 0 1,1 -36,0 z M 304 329 m -75, 0 a 75,75 0 1,1 150,0 a 75,75 0 1,1 -150,0 z M 304 75 m -75, 0 a 75,75 0 1,1 150,0 a 75,75 0 1,1 -150,0 z " horiz-adv-x="600" unicode=")"/>
<glyph d="M 75 583 m -75, 0 a 75,75 0 1,1 150,0 a 75,75 0 1,1 -150,0 z M 75 329 m -18, 0 a 18,18 0 1,1 36,0 a 18,18 0 1,1 -36,0 z M 75 75 m -75, 0 a 75,75 0 1,1 150,0 a 75,75 0 1,1 -150,0 z M 304 583 m -18, 0 a 18,18 0 1,1 36,0 a 18,18 0 1,1 -36,0 z M 304 329 m -75, 0 a 75,75 0 1,1 150,0 a 75,75 0 1,1 -150,0 z M 304 75 m -75, 0 a 75,75 0 1,1 150,0 a 75,75 0 1,1 -150,0 z " horiz-adv-x="600" unicode="z"/>
<glyph d="M 75 583 m -18, 0 a 18,18 0 1,1 36,0 a 18,18 0 1,1 -36,0 z M 75 329 m -75, 0 a 75,75 0 1,1 150,0 a 75,75 0 1,1 -150,0 z M 75 75 m -75, 0 a 75,75 0 1,1 150,0 a 75,75 0 1,1 -150,0 z M 304 583 m -18, 0 a 18,18 0 1,1 36,0 a 18,18 0 1,1 -36,0 z M 304 329 m -75, 0 a 75,75 0 1,1 150,0 a 75,75 0 1,1 -150,0 z M 304 75 m -75, 0 a 75,75 0 1,1 150,0 a 75,75 0 1,1 -150,0 z " horiz-adv-x="600" unicode="&quot;"/>
<glyph d="M 75 583 m -75, 0 a 75,75 0 1,1 150,0 a 75,75 0 1,1 -150,0 z M 75 329 m -75, 0 a 75,75 0 1,1 150,0 a 75,75 0 1,1 -150,0 z M 75 75 m -75, 0 a 75,75 0 1,1 150,0 a 75,75 0 1,1 -150,0 z M 304 583 m -18, 0 a 18,18 0 1,1 36,0 a 18,18 0 1,1 -36,0 z M 304 329 m -75, 0 a 75,75 0 1,1 150,0 a 75,75 0 1,1 -150,0 z M 304 75 m -75, 0 a 75,75 0 1,1 150,0 a 75,75 0 1,1 -150,0 z " horiz-adv-x="600" unicode="à"/>
<glyph d="M 75 583 m -18, 0 a 18,18 0 1,1 36,0 a 18,18 0 1,1 -36,0 z M 75 329 m -18, 0 a 18,18 0 1,1 36,0 a 18,18 0 1,1 -36,0 z M 75 75 m -18, 0 a 18,18 0 1,1 36,0 a 18,18 0 1,1 -36,0 z M 304 583 m -75, 0 a 75,75 0 1,1 150,0 a 75,75 0 1,1 -150,0 z M 304 329 m -75, 0 a 75,75 0 1,1 150,0 a 75,75 0 1,1 -150,0 z M 304 75 m -75, 0 a 75,75 0 1,1 150,0 a 75,75 0 1,1 -150,0 z " horiz-adv-x="600" unicode="_"/>
<glyph d="M 75 583 m -75, 0 a 75,75 0 1,1 150,0 a 75,75 0 1,1 -150,0 z M 75 329 m -18, 0 a 18,18 0 1,1 36,0 a 18,18 0 1,1 -36,0 z M 75 75 m -18, 0 a 18,18 0 1,1 36,0 a 18,18 0 1,1 -36,0 z M 304 583 m -75, 0 a 75,75 0 1,1 150,0 a 75,75 0 1,1 -150,0 z M 304 329 m -75, 0 a 75,75 0 1,1 150,0 a 75,75 0 1,1 -150,0 z M 304 75 m -75, 0 a 75,75 0 1,1 150,0 a 75,75 0 1,1 -150,0 z " horiz-adv-x="600" unicode="ô"/>
<glyph d="M 75 583 m -18, 0 a 18,18 0 1,1 36,0 a 18,18 0 1,1 -36,0 z M 75 329 m -75, 0 a 75,75 0 1,1 150,0 a 75,75 0 1,1 -150,0 z M 75 75 m -18, 0 a 18,18 0 1,1 36,0 a 18,18 0 1,1 -36,0 z M 304 583 m -75, 0 a 75,75 0 1,1 150,0 a 75,75 0 1,1 -150,0 z M 304 329 m -75, 0 a 75,75 0 1,1 150,0 a 75,75 0 1,1 -150,0 z M 304 75 m -75, 0 a 75,75 0 1,1 150,0 a 75,75 0 1,1 -150,0 z " horiz-adv-x="600" unicode="w"/>
<glyph d="M 75 583 m -75, 0 a 75,75 0 1,1 150,0 a 75,75 0 1,1 -150,0 z M 75 329 m -75, 0 a 75,75 0 1,1 150,0 a 75,75 0 1,1 -150,0 z M 75 75 m -18, 0 a 18,18 0 1,1 36,0 a 18,18 0 1,1 -36,0 z M 304 583 m -75, 0 a 75,75 0 1,1 150,0 a 75,75 0 1,1 -150,0 z M 304 329 m -75, 0 a 75,75 0 1,1 150,0 a 75,75 0 1,1 -150,0 z M 304 75 m -75, 0 a 75,75 0 1,1 150,0 a 75,75 0 1,1 -150,0 z " horiz-adv-x="600" unicode="ï"/>
<glyph d="M 75 583 m -18, 0 a 18,18 0 1,1 36,0 a 18,18 0 1,1 -36,0 z M 75 329 m -18, 0 a 18,18 0 1,1 36,0 a 18,18 0 1,1 -36,0 z M 75 75 m -75, 0 a 75,75 0 1,1 150,0 a 75,75 0 1,1 -150,0 z M 304 583 m -75, 0 a 75,75 0 1,1 150,0 a 75,75 0 1,1 -150,0 z M 304 329 m -75, 0 a 75,75 0 1,1 150,0 a 75,75 0 1,1 -150,0 z M 304 75 m -75, 0 a 75,75 0 1,1 150,0 a 75,75 0 1,1 -150,0 z " horiz-adv-x="600" unicode="0"/>
<glyph d="M 75 583 m -75, 0 a 75,75 0 1,1 150,0 a 75,75 0 1,1 -150,0 z M 75 329 m -18, 0 a 18,18 0 1,1 36,0 a 18,18 0 1,1 -36,0 z M 75 75 m -75, 0 a 75,75 0 1,1 150,0 a 75,75 0 1,1 -150,0 z M 304 583 m -75, 0 a 75,75 0 1,1 150,0 a 75,75 0 1,1 -150,0 z M 304 329 m -75, 0 a 75,75 0 1,1 150,0 a 75,75 0 1,1 -150,0 z M 304 75 m -75, 0 a 75,75 0 1,1 150,0 a 75,75 0 1,1 -150,0 z " horiz-adv-x="600" unicode="y"/>
<glyph d="M 75 583 m -18, 0 a 18,18 0 1,1 36,0 a 18,18 0 1,1 -36,0 z M 75 329 m -75, 0 a 75,75 0 1,1 150,0 a 75,75 0 1,1 -150,0 z M 75 75 m -75, 0 a 75,75 0 1,1 150,0 a 75,75 0 1,1 -150,0 z M 304 583 m -75, 0 a 75,75 0 1,1 150,0 a 75,75 0 1,1 -150,0 z M 304 329 m -75, 0 a 75,75 0 1,1 150,0 a 75,75 0 1,1 -150,0 z M 304 75 m -75, 0 a 75,75 0 1,1 150,0 a 75,75 0 1,1 -150,0 z " horiz-adv-x="600" unicode="ù"/>
<glyph d="M 75 583 m -75, 0 a 75,75 0 1,1 150,0 a 75,75 0 1,1 -150,0 z M 75 329 m -75, 0 a 75,75 0 1,1 150,0 a 75,75 0 1,1 -150,0 z M 75 75 m -75, 0 a 75,75 0 1,1 150,0 a 75,75 0 1,1 -150,0 z M 304 583 m -75, 0 a 75,75 0 1,1 150,0 a 75,75 0 1,1 -150,0 z M 304 329 m -75, 0 a 75,75 0 1,1 150,0 a 75,75 0 1,1 -150,0 z M 304 75 m -75, 0 a 75,75 0 1,1 150,0 a 75,75 0 1,1 -150,0 z " horiz-adv-x="600" unicode="é"/>
</font>
</defs>
</svg>
